HIERARCHY
ROOT Hips
{
	OFFSET -0.001795 -0.223333 0.028219
	CHANNELS 6 Xposition Yposition Zposition Zrotation Yrotation Xrotation 
	JOINT LeftUpLeg
	{
		OFFSET 0.069520 -0.091406 -0.006815
		CHANNELS 3 Zrotation Yrotation Xrotation
		JOINT LeftLeg
		{
			OFFSET 0.034277 -0.375199 -0.004496
			CHANNELS 3 Zrotation Yrotation Xrotation
			JOINT LeftFoot
			{
				OFFSET -0.013596 -0.397961 -0.043693
				CHANNELS 3 Zrotation Yrotation Xrotation
				JOINT LeftToe
				{
					OFFSET 0.026358 -0.055791 0.119288
					CHANNELS 3 Zrotation Yrotation Xrotation
					End Site
					{
						OFFSET 0.000000 0.000000 0.000000
					}
				}
			}
		}
	}
	JOINT RightUpLeg
	{
		OFFSET -0.067670 -0.090522 -0.004320
		CHANNELS 3 Zrotation Yrotation Xrotation
		JOINT RightLeg
		{
			OFFSET -0.038290 -0.382569 -0.008850
			CHANNELS 3 Zrotation Yrotation Xrotation
			JOINT RightFoot
			{
				OFFSET 0.015774 -0.398415 -0.042312
				CHANNELS 3 Zrotation Yrotation Xrotation
				JOINT RightToe
				{
					OFFSET -0.025372 -0.048144 0.123348
					CHANNELS 3 Zrotation Yrotation Xrotation
					End Site
					{
						OFFSET 0.000000 0.000000 0.000000
					}
				}
			}
		}
	}
	JOINT Spine
	{
		OFFSET -0.002533 0.108963 -0.026696
		CHANNELS 3 Zrotation Yrotation Xrotation
		JOINT Spine1
		{
			OFFSET 0.005487 0.135180 0.001092
			CHANNELS 3 Zrotation Yrotation Xrotation
			JOINT Spine2
			{
				OFFSET 0.001457 0.052922 0.025425
				CHANNELS 3 Zrotation Yrotation Xrotation
				JOINT Neck
				{
					OFFSET -0.002778 0.213870 -0.042857
					CHANNELS 3 Zrotation Yrotation Xrotation
					JOINT Head
					{
						OFFSET 0.005152 0.064970 0.051349
						CHANNELS 3 Zrotation Yrotation Xrotation
						End Site
						{
							OFFSET 0.000000 0.000000 0.000000
						}
					}
				}
				JOINT LeftShoulder
				{
					OFFSET 0.078845 0.121749 -0.034090
					CHANNELS 3 Zrotation Yrotation Xrotation
					JOINT LeftArm
					{
						OFFSET 0.090977 0.030469 -0.008868
						CHANNELS 3 Zrotation Yrotation Xrotation
						JOINT LeftForeArm
						{
							OFFSET 0.259612 -0.012772 -0.027456
							CHANNELS 3 Zrotation Yrotation Xrotation
							JOINT LeftHand
							{
								OFFSET 0.249234 0.008986 -0.001171
								CHANNELS 3 Zrotation Yrotation Xrotation
								End Site
								{
									OFFSET 0.000000 0.000000 0.000000
								}
							}
						}
					}
				}
				JOINT RightShoulder
				{
					OFFSET -0.081759 0.118833 -0.038615
					CHANNELS 3 Zrotation Yrotation Xrotation
					JOINT RightArm
					{
						OFFSET -0.096012 0.032551 -0.009143
						CHANNELS 3 Zrotation Yrotation Xrotation
						JOINT RightForeArm
						{
							OFFSET -0.253742 -0.013329 -0.021401
							CHANNELS 3 Zrotation Yrotation Xrotation
							JOINT RightHand
							{
								OFFSET -0.255298 0.007772 -0.005559
								CHANNELS 3 Zrotation Yrotation Xrotation
								End Site
								{
									OFFSET 0.000000 0.000000 0.000000
								}
							}
						}
					}
				}
			}
		}
	}
}
MOTION
Frames: 18
Frame Time: 0.050000
-0.613236 0.924214 1.375374 -0.152907 -24.661423 -4.966908 -3.255788 -1.600969 -18.962071 5.510528 -0.138739 -7.379778 -1.266342 2.195997 26.490001 0.000000 0.000000 0.000000 9.404788 -2.218698 18.638835 -5.238019 0.391469 -0.127988 -0.183954 -2.181392 2.352550 0.000000 0.000000 0.000000 -2.997391 -0.006114 5.798636 -1.780544 0.733690 -1.400276 3.481188 7.482458 7.274619 1.085626 0.195319 -23.078955 0.000000 0.000000 0.000000 -23.466903 0.955578 -0.832976 -50.482296 -3.794315 -5.133842 -9.016914 -25.502745 3.384414 0.000000 0.000000 0.000000 22.636859 10.965196 1.996609 56.136951 19.878109 4.223593 3.423523 26.145234 1.255274 0.000000 0.000000 0.000000 
-0.622254 0.922775 1.411047 -0.659880 -25.203341 -4.137679 -2.807861 -1.466853 -17.964918 5.592417 -0.105329 -7.776150 -1.658041 2.304360 29.775345 0.000000 0.000000 0.000000 9.346671 -2.266147 19.808076 -5.306130 0.518882 1.245941 0.150799 -1.926906 2.972082 0.000000 0.000000 0.000000 -2.626386 -0.026520 5.543801 -1.993171 0.803098 -1.827050 3.801941 8.231988 7.456373 1.135400 0.200881 -22.798877 0.000000 0.000000 0.000000 -24.239339 0.940222 -0.948683 -50.570563 -3.229479 -5.390675 -7.836624 -24.861054 3.015894 0.000000 0.000000 0.000000 22.667612 11.170344 2.258023 55.528271 19.917902 4.152628 4.129029 26.167279 1.435561 0.000000 0.000000 0.000000 
-0.630767 0.924490 1.450676 -0.472723 -26.148093 -3.394747 -3.144889 -1.474272 -17.205225 5.381737 -0.239305 -6.399683 -0.291679 3.720284 29.896490 0.000000 0.000000 0.000000 8.198423 -2.035592 20.500620 -5.466631 0.745413 3.395318 1.349332 -0.730209 4.643511 0.000000 0.000000 0.000000 -2.492715 -0.028785 4.277581 -2.676267 1.151706 -1.465739 4.107826 8.757384 6.993562 0.895324 0.329691 -22.720185 0.000000 0.000000 0.000000 -24.563111 2.334560 -1.840751 -50.242220 -2.392805 -5.635513 -8.033998 -25.105428 3.102074 0.000000 0.000000 0.000000 22.392750 10.660508 1.967790 55.728959 18.691926 3.630681 5.095908 26.980543 1.679555 0.000000 0.000000 0.000000 
-0.638697 0.929880 1.493199 -0.194514 -26.874381 -2.637586 -3.823198 -1.520513 -15.974868 5.123904 -0.311572 -5.484064 0.494566 4.202433 28.213893 0.000000 0.000000 0.000000 6.758490 -1.727837 21.353663 -5.362491 0.976007 5.600523 2.738847 0.257655 6.991710 0.000000 0.000000 0.000000 -2.447449 -0.019364 3.356085 -2.909179 1.207969 -2.082990 4.197390 9.090879 7.273583 1.228960 0.050392 -21.535189 0.000000 0.000000 0.000000 -24.952322 2.605376 -1.951842 -49.922534 -1.966218 -5.821575 -8.084546 -25.232920 3.149368 0.000000 0.000000 0.000000 22.318898 11.013019 2.125203 55.344353 16.593534 2.601621 5.792074 27.785558 1.883040 0.000000 0.000000 0.000000 
-0.646742 0.936015 1.537790 0.291716 -27.311337 -2.223781 -4.552011 -1.535595 -14.314584 4.224104 -0.310356 -4.594557 1.623267 5.106385 25.321681 0.000000 0.000000 0.000000 5.475790 -1.422476 21.573295 -5.040969 1.272435 8.405064 3.376082 -1.485755 11.207460 0.000000 0.000000 0.000000 -2.306152 -0.011918 2.387633 -3.107935 1.364400 -1.391784 3.881097 9.398208 6.378481 1.439073 -0.076556 -20.770528 0.000000 0.000000 0.000000 -24.733949 2.428141 -1.928266 -49.616693 -2.021909 -5.671216 -8.185121 -25.509214 3.190017 0.000000 0.000000 0.000000 21.999119 10.109265 1.693811 55.555488 14.513811 1.669724 6.112055 27.965317 1.969594 0.000000 0.000000 0.000000 
-0.655112 0.941317 1.583702 0.800414 -27.358469 -2.152171 -5.319844 -1.481570 -12.015025 3.045234 -0.229786 -4.062631 2.235643 5.594062 22.129834 0.000000 0.000000 0.000000 3.671502 -0.998758 22.218442 -4.108262 1.472981 11.124268 4.584241 -1.930931 15.394215 0.000000 0.000000 0.000000 -2.355713 0.010060 1.240502 -3.126846 1.353229 -1.618923 4.431685 8.695298 7.695742 0.206055 0.542514 -21.984137 0.000000 0.000000 0.000000 -25.761361 1.394811 -0.944819 -49.098759 -3.065646 -5.479861 -6.890347 -25.032465 2.890288 0.000000 0.000000 0.000000 21.818634 9.681547 1.203143 55.787857 13.289465 1.037248 5.548291 27.306115 1.753728 0.000000 0.000000 0.000000 
-0.663711 0.945370 1.630199 0.922884 -27.173176 -2.904063 -6.270379 -1.293384 -8.815669 2.682853 -0.249292 -3.097946 2.615621 5.914391 18.673238 0.000000 0.000000 0.000000 1.477144 -0.493179 21.430946 -1.717677 1.716127 16.338912 6.116669 -3.460461 23.077867 0.000000 0.000000 0.000000 -2.501404 0.018359 0.729198 -2.729118 1.188805 -1.355220 4.663119 7.901783 7.999188 0.219144 0.387847 -21.023135 0.000000 0.000000 0.000000 -25.814690 1.302087 -0.598028 -48.105868 -3.909545 -5.197547 -7.726873 -25.739976 3.216128 0.000000 0.000000 0.000000 21.194410 9.290642 0.795063 55.973816 10.854138 -0.117064 6.666062 27.672213 1.968442 0.000000 0.000000 0.000000 
-0.671800 0.946406 1.675091 1.250179 -27.487794 -3.514890 -7.393986 -1.081729 -6.253987 2.448766 -0.296923 -1.647170 3.170367 6.631971 15.118201 0.000000 0.000000 0.000000 -1.736079 0.180156 18.662111 2.518344 1.852191 24.396028 5.940299 -5.835623 28.832946 0.000000 0.000000 0.000000 -3.119837 0.035253 0.523128 -1.955007 0.838480 -1.178199 5.063232 7.219870 8.431101 0.084922 0.362443 -21.370466 0.000000 0.000000 0.000000 -26.751238 0.272106 0.417529 -46.892494 -4.669452 -5.023562 -8.376909 -26.599389 3.528767 0.000000 0.000000 0.000000 20.155864 8.885704 0.441786 56.945931 8.809642 -1.184582 7.614166 27.374968 2.101385 0.000000 0.000000 0.000000 
-0.679099 0.945951 1.716121 1.315431 -27.177781 -4.264292 -8.480604 -0.647625 -2.921235 2.608460 -0.326195 -1.488012 3.193958 6.747670 12.007712 0.000000 0.000000 0.000000 -3.920883 0.432208 14.490832 6.196428 2.118036 33.725555 4.314488 -8.831149 33.525149 0.000000 0.000000 0.000000 -2.915076 0.013695 0.926266 -1.525123 0.639024 -1.113829 4.704279 5.147650 8.449038 -0.127921 0.262748 -21.437130 0.000000 0.000000 0.000000 -27.623928 -0.199744 1.406914 -45.336810 -6.011784 -4.695242 -8.990859 -27.492912 3.878815 0.000000 0.000000 0.000000 20.366213 8.964010 -0.080737 56.615616 7.042829 -1.912133 7.536568 28.071706 2.007260 0.000000 0.000000 0.000000 
-0.685703 0.945464 1.752545 1.290663 -27.387097 -5.115426 -9.211741 -0.138001 0.127959 2.619798 -0.348461 -1.081188 3.350134 7.117354 9.585134 0.000000 0.000000 0.000000 -5.558282 0.567144 10.292861 8.765076 2.264009 40.325659 1.544502 -11.676964 33.243441 0.000000 0.000000 0.000000 -2.743338 -0.005978 1.253072 -0.957232 0.468740 0.168692 4.141442 3.169600 7.533144 -0.047074 -0.036915 -19.512976 0.000000 0.000000 0.000000 -27.599380 -0.535085 2.251033 -45.122476 -7.073152 -4.460110 -8.467255 -28.116164 3.921734 0.000000 0.000000 0.000000 20.800759 9.689763 -0.336083 56.041209 5.203341 -2.492232 7.829144 28.915844 1.982127 0.000000 0.000000 0.000000 
-0.691828 0.946237 1.784580 1.190069 -27.388850 -5.751548 -10.110872 0.456736 3.035202 3.329665 -0.436375 -1.275863 3.300186 7.134792 8.334374 0.000000 0.000000 0.000000 -5.668035 0.447643 5.663992 9.863013 2.541879 44.303933 -2.652740 -15.019790 25.135401 0.000000 0.000000 0.000000 -2.391709 -0.024491 1.383294 -0.411051 0.267627 0.987968 3.363689 1.523011 7.598687 -0.109531 -0.158377 -19.600624 0.000000 0.000000 0.000000 -27.616158 -1.248645 3.262026 -45.686141 -9.309371 -3.886920 -6.765622 -28.130814 3.554172 0.000000 0.000000 0.000000 21.228393 10.005936 -0.692258 55.771645 4.315999 -2.746425 8.056118 29.943696 1.976253 0.000000 0.000000 0.000000 
-0.698080 0.947046 1.812413 0.976565 -26.768603 -6.507633 -10.393281 1.073897 5.773924 3.509823 -0.460687 -1.239664 2.927227 6.552119 7.387300 0.000000 0.000000 0.000000 -4.964148 0.360053 0.963660 10.611714 2.456510 45.914483 -6.072901 -17.726792 14.305036 0.000000 0.000000 0.000000 -2.025677 -0.054529 2.162055 0.191765 -0.040641 0.896711 2.657266 -0.239958 8.016124 -0.034394 -0.388241 -18.386598 0.000000 0.000000 0.000000 -26.913996 -1.864990 4.099848 -46.739361 -10.888115 -3.478518 -5.465366 -29.111676 3.447023 0.000000 0.000000 0.000000 21.646089 9.626602 -1.392515 55.098383 2.896084 -3.244686 9.292306 32.009222 2.283299 0.000000 0.000000 0.000000 
-0.704793 0.947628 1.837348 0.590308 -25.729173 -6.930932 -10.282180 1.695527 8.430475 3.710024 -0.449089 -1.802102 2.319407 5.482130 6.744479 0.000000 0.000000 0.000000 -3.785887 0.436078 -3.427186 10.545627 2.156331 44.641313 -7.613396 -19.540830 10.028303 0.000000 0.000000 0.000000 -1.914734 -0.076698 3.181384 0.867400 -0.376528 0.899002 1.962755 -2.107871 8.280647 -0.486620 -0.256356 -18.697768 0.000000 0.000000 0.000000 -26.605029 -2.087802 4.605038 -47.280061 -13.356540 -2.650959 -4.093927 -29.496450 3.202272 0.000000 0.000000 0.000000 22.122860 10.137931 -1.584101 54.445802 1.916156 -3.499948 9.426176 32.380722 2.253304 0.000000 0.000000 0.000000 
-0.712101 0.948015 1.860822 0.098248 -24.423000 -7.391536 -10.028327 2.293398 10.966369 4.207560 -0.480725 -2.118101 1.643484 4.234662 6.210898 0.000000 0.000000 0.000000 -1.899413 0.708088 -7.455060 9.115335 2.118172 41.489531 -8.156196 -20.245253 7.766450 0.000000 0.000000 0.000000 -1.887086 -0.094579 4.474871 1.326507 -0.592375 1.282518 1.835857 -3.822534 7.936589 -1.126017 0.030164 -18.319419 0.000000 0.000000 0.000000 -26.195433 -2.527949 5.108126 -47.734296 -15.180443 -1.946211 -2.726199 -30.100333 2.963464 0.000000 0.000000 0.000000 22.055375 10.105487 -1.876473 54.073804 0.866494 -3.836332 9.659111 32.994766 2.257725 0.000000 0.000000 0.000000 
-0.720098 0.947950 1.883927 -0.372811 -23.206009 -7.615591 -9.246442 2.736987 13.125153 3.977042 -0.436546 -2.251907 0.983873 2.963933 5.708150 0.000000 0.000000 0.000000 -0.180002 1.164399 -10.991085 6.379727 2.265998 36.239598 -7.560013 -19.149939 6.752185 0.000000 0.000000 0.000000 -1.716633 -0.111965 5.510974 1.743976 -0.814425 1.138242 1.480105 -5.042444 8.079737 -1.545909 0.223175 -18.225107 0.000000 0.000000 0.000000 -26.487994 -2.985359 5.620115 -47.570879 -17.118085 -1.279600 -1.853468 -30.900925 2.845392 0.000000 0.000000 0.000000 21.762703 9.493428 -2.274716 54.247890 -0.264430 -4.405576 10.704041 32.859915 2.476904 0.000000 0.000000 0.000000 
-0.728629 0.946637 1.907492 -0.634174 -21.782830 -8.037964 -8.715972 3.162244 15.188595 4.064239 -0.457188 -1.946420 0.330146 1.640723 5.036202 0.000000 0.000000 0.000000 1.407452 1.645184 -13.542872 3.659226 2.141328 29.940166 -6.712004 -17.723297 6.779085 0.000000 0.000000 0.000000 -2.080672 -0.100883 6.555843 2.192269 -1.036816 1.457840 1.836539 -5.983999 7.965349 -2.039061 0.485998 -19.563625 0.000000 0.000000 0.000000 -26.428054 -2.972269 5.622601 -47.871028 -18.000585 -0.882328 -1.308756 -32.650413 2.931220 0.000000 0.000000 0.000000 21.137139 9.107732 -2.360326 54.478593 -1.096972 -4.891324 10.276878 32.885780 2.342044 0.000000 0.000000 0.000000 
-0.737884 0.944356 1.931942 -0.753804 -20.736547 -7.830120 -8.685407 3.524101 16.698967 4.781355 -0.532858 -1.921851 -0.076251 0.763423 4.480931 0.000000 0.000000 0.000000 2.282004 1.974065 -15.048516 2.212688 1.414758 21.779589 -5.935099 -16.591249 7.533856 0.000000 0.000000 0.000000 -2.259018 -0.092091 7.039805 2.381043 -1.123679 1.914491 1.799959 -6.384761 7.484219 -2.247834 0.644326 -20.318757 0.000000 0.000000 0.000000 -27.091137 -3.173559 5.765213 -47.389841 -19.275844 -0.413700 -0.980587 -33.587071 2.925923 0.000000 0.000000 0.000000 20.961971 8.932737 -2.335873 54.672984 -1.862468 -5.276194 10.311633 32.419510 2.342758 0.000000 0.000000 0.000000 
-0.748181 0.941251 1.957514 -0.687498 -18.776046 -7.754546 -8.263503 3.899195 18.671993 5.116293 -0.518455 -2.385336 -0.942893 -1.052416 4.013578 0.000000 0.000000 0.000000 1.963921 2.128168 -16.237838 2.516619 0.503763 13.892010 -4.887869 -15.314649 9.597248 0.000000 0.000000 0.000000 -2.619214 -0.074941 7.550303 2.570437 -1.247772 1.228590 1.626795 -6.991297 8.025986 -2.511426 0.810951 -22.257539 0.000000 0.000000 0.000000 -26.856432 -3.575937 5.884198 -47.927481 -20.786293 0.277539 -1.129784 -34.706289 3.102642 0.000000 0.000000 0.000000 20.269780 8.285508 -2.372064 55.399380 -2.378082 -5.809171 9.951587 31.832659 2.246302 0.000000 0.000000 0.000000 
